<svg id="Layer_1" data-name="Layer 1" xmlns="http://www.w3.org/2000/svg" width="214.7" height="257.3" viewBox="0 0 214.7 257.3"><path d="M188.3,199.9c-.9-.4-.9,1.7.1,1.7s1.6-1.1,2.2-1.9c3.5-4.7,10.4-4.2,16.2-3.3a10.1,10.1,0,0,0-9.3-10.6l-.3,5.1c-4.6-1.8-9.9,3.8-7.9,8.3,6.6,15,9.1,32.8,9.1,49.2" fill="#231f20"/><path d="M81.8,249.8s-27.9-27.5-8-59.9c13.2-21.6,47.4-38.3,55.1-48.7s13.3-55.7,13.3-55.7L165,72l10.8,14.7L181,64.6l18.7,20s-5.6,60.1-5.8,65.7S184.8,208,160.7,229C145.1,242.5,111.4,270.3,81.8,249.8Z" fill="#9165ab"/><path d="M104.8,257.7a40.4,40.4,0,0,1-23.4-7.4h0c-.3-.3-28-28.3-8.1-60.7,8.1-13.3,24.2-24.8,37.1-34,8.1-5.8,15.1-10.8,18-14.8,7.5-10.1,13.1-55,13.1-55.4v-.3l23.6-13.9,10.3,14,5.2-21.8,19.7,20.9v.3c-.1.6-5.7,60.2-5.9,65.7s-8.7,57.7-33.4,79.1C151.1,238.1,128.5,257.7,104.8,257.7Zm-22.6-8.4c30.1,20.8,65-9.4,78.1-20.8,23.9-20.8,32.8-73.3,32.9-78.2s5.4-60.5,5.9-65.5L181.4,65.9l-5.3,22.2L164.9,72.8l-22.2,13c-.5,4.4-5.8,45.7-13.3,55.8-3,4.1-10.1,9.1-18.3,15-12.8,9.1-28.7,20.6-36.8,33.6C55.3,221.3,81.1,248.2,82.2,249.3Z" fill="#231f20"/><path d="M175.2,24.8S170-1.9,181.1,1.3C190.5,6.7,191.3,14.6,175.2,24.8Z" fill="#0b572c"/><path d="M174.8,25.8l-.2-.9c-.1-.8-3.6-18.5,1.6-23.2a5,5,0,0,1,5.1-1h.1c4.6,2.6,7,5.7,7,9.2s-4.2,9.9-12.8,15.3Zm4.6-24.1a3.2,3.2,0,0,0-2.3.9c-4.1,3.7-2,17.4-1.4,21.1,7.7-5,11.6-9.6,11.5-13.7s-2.2-5.7-6.3-8.1Z" fill="#231f20"/><path d="M142.2,85.5s7.3-47.6,11.3-50.8,21.7-9.9,21.7-9.9,23.5.3,27.5,16.4.4,53.7,4.9,54.4-26.6-31-26.6-31-5.1,22-1.4,27.2L165,72Z" fill="#0b572c"/><path d="M207.7,96.3h-.2c-1.1-.2-1.8-1.7-2.3-4.3-4.3-5.5-14.2-16.2-23.8-26.1-1.5,6.8-4.1,21.7-1.3,25.6a2.1,2.1,0,0,1,.4.6h.1c.2.4.2.6-.1.9s-.4.3-.9-.2h0c0-.1-.2-.3-.4-.6a31.6,31.6,0,0,1-2-2.6L164.9,72.8,141.3,86.7l.2-1.3c.8-4.9,7.5-47.9,11.6-51.2s21.2-9.8,21.9-10h.2c.3,0,24.1.5,28.1,17,2,7.8,2.1,20.4,2.3,31.6.1,6.7.2,14.5.8,18.9,1.6,2.1,2.5,3.7,2.2,4.2A.9.9,0,0,1,207.7,96.3Zm-27-32.9.8.8c7.3,7.5,17.9,18.5,23.4,25.5-.4-3.9-.5-9.6-.6-17-.1-11.1-.3-23.7-2.2-31.3-3.7-14.9-25-16-26.8-16s-17.6,6.8-21.4,9.8-8,30-10.9,49l22.2-13,.3.4,12.3,16.8c-1.1-8.1,2.4-23.1,2.6-23.9Z" fill="#231f20"/><path d="M201.5,191.6c-2.5-.5-2.7-3.4-2.8-5.1l-3.2,3.2,2.4-4.3c.3-.4.6-1,1.1-1.1l11.2-11.1a170.9,170.9,0,0,1-17-27.8l1.2-.6a167.8,167.8,0,0,0,17.2,28.1l.4.5-12.1,11.8a3.1,3.1,0,0,1,.1,1c.1,1.9.3,3.8,1.7,4.1Z" fill="#231f20"/><path d="M57.5,139.5l-.3-1.3a229.8,229.8,0,0,1,75.7-5.9v1.3A229.9,229.9,0,0,0,57.5,139.5Z" fill="#231f20"/><path d="M28.1,114.8c.8-.8,6.5-14.5,7-15.2s6.6-14.2,6.8-15.4.7-.7,1.3-.7H53.3c.3,0,.4.1.4.4v1.3c0,.3-.1.5-.5.5H50.7c-1.7,0-1.9,1-1.9,2.3s-.1,9.9-.1,13.7v4c0,2.8.1,12.1.1,13.2s.6,3.1,2,3.1h3.3c.4,0,.4.2.4.4v1.3c0,.4,0,.5-.5.5H37.8c-.4,0-.4-.1-.4-.5v-1.3c0-.3,0-.4.4-.4h3.9c1,0,1.5-.3,1.6-2s.1-10.7.1-14.9v-3.6c0-3.8,0-14-.2-14.5h-.1c-.5.7-8.6,18.7-8.9,19.3s-6.7,15.2-6.9,15.8-.7,1.3-1.2,1.3-.6-.4-.8-1l-7.8-19.1c-1.1-2.6-6.3-15.4-7.1-16.1-.2.8-.3,15.2-.3,15.9s-.1,12.7.1,14.7.8,4.2,2.6,4.2h2.9a.4.4,0,0,1,.4.4v1.4c0,.3-.1.4-.5.4H1.3c-.5,0-.5,0-.5-.5v-1.4c0-.1,0-.3.3-.3h3c2.2,0,2.7-1.5,3.1-3.4.6-4.1.8-18.7.8-19.7V87.7c-.1-1.3,0-2.1-2.4-2.1H2.1a.4.4,0,0,1-.4-.4V83.7c0-.2.1-.3.4-.3H14c.8,0,1.2.2,1.4.9Z" fill="#231f20"/><path d="M77.2,121.4a2.7,2.7,0,0,0,2-.8c.2-.3.4-.4.6-.2l.6.4a.9.9,0,0,1-.1,1,4.7,4.7,0,0,1-4.5,2.8c-2,0-3.5-1.4-4-3.8h-.1a13,13,0,0,1-5.7,3.5,11.9,11.9,0,0,1-3.3.3c-1.4,0-3.5-1.1-3.5-4.7s1.2-4.9,5.7-6.9a34.4,34.4,0,0,0,6.5-3.3V106a7.2,7.2,0,0,0-.8-3.2,4.5,4.5,0,0,0-3.4-1.2,5.9,5.9,0,0,0-3.7,1.2c-.8.7-.3,1.6-.3,2.6s-.7,3.3-3.1,3.3c-.9,0-1.3-.6-1.3-1.9s1.6-4,3.9-5.3a12.1,12.1,0,0,1,7-2c2.7,0,3.8.8,4.6,1.5s1.2,2.5,1.2,4.1v12.1C75.5,120.4,76.2,121.4,77.2,121.4Zm-5.9-10c-2,1.5-7.6,2.7-7.6,7.4,0,2.1,1.2,3.2,3,3.2s4.6-2,4.6-3.6Z" fill="#231f20"/><path d="M86.1,91.2c0-2.4-.1-3.3-2.9-4.1-.7-.1-.8-.2-.8-.4v-.5c0-.2.1-.3.7-.6l5.8-2.5a3.8,3.8,0,0,1,1.3-.4q.5,0,.3.9c-.3,2.8-.3,11.2-.3,18v9.1A5.3,5.3,0,0,0,93,110a50.2,50.2,0,0,0,6-6.4c.4-.6.4-1.1,0-1.3a2.7,2.7,0,0,0-1.5-.3c-.4,0-.4-.2-.4-.5v-1.1c0-.3.1-.5.4-.5s2.4.2,5.3.2,4.2-.2,4.6-.2.4.2.4.6v1c0,.4-.1.5-.5.5h-.4a7.5,7.5,0,0,0-3.9,1.3c-.8.4-5.6,4.9-7.6,6.8,1.2,1.1,10.8,10.7,11.7,11.2a8.9,8.9,0,0,0,3,.8c.4,0,.5.1.5.5v1c0,.4-.1.5-.5.5h-11c-.3,0-.4-.1-.4-.5v-1c0-.2.1-.4.6-.4h.4a.6.6,0,0,0,.6-.9c-.2-.5-6.7-7.4-7.6-8.2a3.7,3.7,0,0,0-2.5-.7v2.5c0,2,0,4,.1,6s.3,1.2,1.1,1.2h1.7c.4,0,.5.1.5.4v1c0,.5-.1.6-.4.6H82.6c-.2,0-.3-.2-.3-.5v-1c0-.4.2-.5.6-.5H85c.7,0,1-.7,1-1.4.1-2.5.1-5.6.1-10.6Z" fill="#231f20"/><path d="M129.8,89.2c0-2.2-.4-2.9-3.6-3.4-.4,0-.4-.2-.4-.4v-1c0-.2.1-.3.4-.4l6.3-1.1,1.3-.2c.3,0,.3.4.3,1-.2,2.9-.2,11.1-.2,18.4v12.6c0,2.1.1,4.6.5,5.2a4.3,4.3,0,0,0,2.5,1c.8,0,1.1.1,1.2.4v.4c.1.4-.1.5-.4.7l-6.4,2.1c-.4.1-.7,0-.8-.4l-.7-2.5a13.4,13.4,0,0,1-8.4,3c-1.9,0-4.1.2-6.8-2.6s-3.6-5.4-3.6-9.2a13.7,13.7,0,0,1,4-9.7,11.6,11.6,0,0,1,8.5-3.6,22.8,22.8,0,0,1,6.2.8Zm0,18.1a4.9,4.9,0,0,0-.6-2.8c-.8-1.6-2.6-3.1-6-3.1a7,7,0,0,0-5.2,2.1,11,11,0,0,0-2.6,7.6c0,6.4,4.5,11.1,7.8,11.1s5.6-1.7,6.2-3.1a5.8,5.8,0,0,0,.4-2Z" fill="#231f20"/><path d="M143.9,120.7c-2.6-3.1-3.1-5.2-3.1-9.3a12,12,0,0,1,4.9-9.2,12.2,12.2,0,0,1,7.6-2.7,12,12,0,0,1,8,3.3,12.5,12.5,0,0,1,3.9,9.3,13,13,0,0,1-12.6,12.5A11.4,11.4,0,0,1,143.9,120.7Zm16.5-9.2c0-6.3-4.6-10.3-7.5-10.3a5.4,5.4,0,0,0-4.4,1.8c-2.2,2.3-3,4.6-3,9s.3,5.3,2.1,8a6.5,6.5,0,0,0,5.7,2.9C157.6,122.9,160.4,117.6,160.4,111.5Z" fill="#231f20"/><path d="M191,112.4c0,2.7,0,5.5.1,6.7s.8,2,1.5,2a7.2,7.2,0,0,0,1.9-.2c.5-.1.6,0,.7.3l.2.7c0,.3-.1.5-.3.5l-6,2-1.2.2c-.2,0-.4-.1-.5-.6l-.4-3.4h-.1a10.4,10.4,0,0,1-7.8,4,5.9,5.9,0,0,1-5.4-2.6c-2.3-3-2.2-4.9-2.2-11.2v-6.7c-.1-1.6-.9-2-2.2-2.1s-1.2-.1-1.2-.4v-1c0-.4.1-.5.6-.5h6.5a.6.6,0,0,1,.6.7c0,.5-.2,3.2-.2,6.6v4.1c0,2.3-.6,5.9,1.3,8.6a4.7,4.7,0,0,0,4.5,2.1c1.6,0,3.9-1.5,4.9-2.8a2.8,2.8,0,0,0,.6-1.6V104c-.1-1.6-1-1.9-2.4-2s-1.3-.1-1.3-.4v-1c0-.4.1-.5.7-.5h6.9a.6.6,0,0,1,.6.6c-.1.5-.4,2-.4,7.6Z" fill="#231f20"/><path d="M199.8,123a.8.8,0,0,1-.3-.8l-1-5.4c-.1-.3.1-.4.3-.5l.8-.2a.5.5,0,0,1,.5.4l1.4,2.8c1.2,2.1,2,3.5,5,3.5s4.5-1.2,4.5-3.9-1.2-4-5.5-5.2-6.8-2.8-6.8-7.3,3.7-6.9,8-6.9a10.7,10.7,0,0,1,5.3,1.2c.8.4.9.7,1,1l.9,4a.7.7,0,0,1-.4.5l-.7.2c-.3.1-.4,0-.5-.3l-2-2.6a4.3,4.3,0,0,0-4-2.2c-2.1,0-4.4,1.3-4.4,3.8s2.7,3.9,5.5,4.7,6.8,2.9,6.9,7.3-3.9,7.5-8.7,7.5A11.2,11.2,0,0,1,199.8,123Z" fill="#231f20"/></svg>