<svg xmlns="http://www.w3.org/2000/svg"><symbol id="close" viewBox="0 0 399.4 399.4"><path d="M248.3 199.7l141-141a34.4 34.4 0 0 0 0-48.6 34.3 34.3 0 0 0-48.7 0L199.7 151 58.7 10.1a34.2 34.2 0 0 0-48.6 0 34.2 34.2 0 0 0 0 48.6l140.9 141L10.1 340.6a34.3 34.3 0 0 0 0 48.7 34.4 34.4 0 0 0 48.6 0l141-141 140.9 141a34.5 34.5 0 0 0 48.7 0 34.5 34.5 0 0 0 0-48.7z"/></symbol><symbol id="open" viewBox="0 0 399.1 370.5"><rect width="399.1" height="68.82" rx="29.7"/><rect width="399.1" height="68.82" y="150.8" rx="29.7"/><rect width="399.1" height="68.82" y="301.7" rx="29.7"/></symbol></svg>